<?xml version="1.0" encoding="utf-8"?>
<!-- Generator: Adobe Illustrator 15.1.0, SVG Export Plug-In . SVG Version: 6.00 Build 0)  -->
<!DOCTYPE svg PUBLIC "-//W3C//DTD SVG 1.1//EN" "http://www.w3.org/Graphics/SVG/1.1/DTD/svg11.dtd">
<svg version="1.1" id="Calque_1" xmlns="http://www.w3.org/2000/svg" xmlns:xlink="http://www.w3.org/1999/xlink" x="0px" y="0px"
	 width="841.89px" height="595.275px" viewBox="0 0 841.89 595.275" enable-background="new 0 0 841.89 595.275"
	 xml:space="preserve">
<g>
	<g>
		<g>
			<path fill="#26338C" d="M305.815,321.457c-2.341,0-5.455,0-8.596-0.391v46.498h-25.386V235.691
				c10.74-0.574,22.45-0.76,35.353-0.76c32.411,0,50.197,15.021,50.197,40.811C357.384,301.342,337.854,321.457,305.815,321.457z
				 M306.214,255.621c-3.117,0-6.053,0-8.994,0.211v43.928c2.543,0.404,5.08,0.609,7.447,0.609
				c15.615-0.205,26.355-8.797,26.355-23.063C331.022,264.023,323.405,255.621,306.214,255.621z"/>
			<path fill="#26338C" d="M411.51,369.512c-27.549,0-45.334-14.262-45.334-48.85c0-30.271,20.127-52.152,49.639-52.152
				c27.529,0,45.314,15.236,45.314,48.641C461.129,347.631,440.605,369.512,411.51,369.512z M414.051,289.621
				c-11.137,0-22.074,8.586-22.074,28.521c0,19.914,7.207,30.068,21.695,30.068c12.287,0,21.656-9.949,21.656-29.666
				C435.328,299.76,428.699,289.621,414.051,289.621z"/>
			<path fill="#26338C" d="M507.219,367.564h-24.992v-123.48c-4.703-0.756-11.354-1.547-16.99-1.934v-15.627
				c12.504-1.582,27.51-2.146,41.982-1.758V367.564z"/>
			<path fill="#26338C" d="M569.361,367.564h-24.813v-77.943c-4.701-0.785-11.35-1.568-16.988-1.969v-15.619
				c12.287-1.559,27.313-2.152,41.801-1.766V367.564z M556.836,257.951c-8.375,0-15.422-6.82-15.422-15.223
				c0-8.197,7.047-15.045,15.422-15.045c8.613,0,15.639,6.633,15.639,15.045C572.475,251.131,565.449,257.951,556.836,257.951z"/>
			<path fill="#26338C" d="M632.836,369.512c-21.479,0-28.125-7.801-28.125-30.471v-49.227h-16.809v-19.34h16.594v-29.9
				l25.025-6.641v36.541h23.637v19.34h-23.637v42.59c0,12.498,2.918,16.023,11.531,16.023c4.088,0,8.572-0.604,12.105-1.582v20.121
				C646.906,368.531,639.664,369.512,632.836,369.512z"/>
			<path fill="#26338C" d="M708.617,367.564h-24.791v-77.943c-4.705-0.785-11.352-1.568-16.992-1.969v-15.619
				c12.287-1.559,27.332-2.152,41.783-1.766V367.564z M696.113,257.951c-8.396,0-15.404-6.82-15.404-15.223
				c0-8.197,7.008-15.045,15.404-15.045c8.613,0,15.639,6.633,15.639,15.045C711.752,251.131,704.727,257.951,696.113,257.951z"/>
			<path fill="#26338C" d="M818.217,323.035h-60.176c-0.182,18.141,8.793,26.939,26.771,26.939c9.549,0,19.91-2.15,28.307-6.035
				l2.344,19.318c-10.326,4.102-22.648,6.254-34.775,6.254c-30.85,0-48.035-15.434-48.035-49.605
				c0-29.709,16.395-51.582,45.533-51.582c28.305,0,40.805,19.328,40.805,43.367C818.99,315.023,818.795,318.904,818.217,323.035z
				 M777.389,286.682c-10.342,0-17.602,7.615-18.955,19.336h35.77C794.58,293.91,787.947,286.682,777.389,286.682z"/>
		</g>
	</g>
	<rect x="271.716" y="416.629" fill="#DB5C1E" width="543.801" height="9.506"/>
	<g>
		<g>
			<g>
				<path fill="#FFFFFF" d="M194.608,297.574c0,42.272-34.209,76.432-76.508,76.432c-42.188,0-76.448-34.159-76.448-76.432
					c0-42.255,34.26-76.484,76.448-76.484C160.398,221.09,194.608,255.319,194.608,297.574z"/>
				<g>
					<path fill="#26338C" d="M194.608,297.574c0-42.255-34.209-76.484-76.508-76.484c-42.188,0-76.448,34.229-76.448,76.484
						c0,40.251,31.131,73.259,70.642,76.246c-3.39-4.09-7.566-9.674-11.279-14.901c-6.237-8.749-13.653-21.912-13.904-35.059
						c-0.212-9.822,1.992-15.095,14.88-35.397c4.991-7.879,8.382-21.453,7.919-24.383c-0.513-2.949,4.679,4.416,6.671,9.348
						c2.525,6.461,2.143,11.432-2.636,24.871c-2.254,6.381-5.997,16.66-2.254,21.251c-0.442-0.54,12.135-13.404,15.123-26.715
						c2.204-10.159,1.257-23.756-3.069-33.767c-3.854-8.803-8.491-16.015-7.556-27.599c0.393-4.849,1.699-9.636,1.852-9.891
						c2.807,7.116,4.114,9.709,5.171,11.705c5.172,9.77,15.907,24.234,20.988,33.989c5.011,9.818,8.965,26.027,3.049,42.556
						c-5.766,16.18-11.32,21.732-17.125,34.87c-4.357,9.748-8.069,21.81-9.931,29.307
						C161.495,372.921,194.608,339.112,194.608,297.574z"/>
				</g>
			</g>
		</g>
	</g>
</g>
</svg>
